<?xml version="1.0"?>
<svg xmlns="http://www.w3.org/2000/svg" viewBox="0 0 512 512" width="512" height="512"><g id="Solid"><path d="M32,400v40H80.679a47.991,47.991,0,0,1,94.642,0H248V376H56A24.028,24.028,0,0,0,32,400Zm168-8h32v16H200Z"/><path d="M128,416a32,32,0,1,0,32,32A32.036,32.036,0,0,0,128,416Zm0,48a16,16,0,1,1,16-16A16.019,16.019,0,0,1,128,464Z"/><path d="M456,376H264v64h72.679a47.991,47.991,0,0,1,94.642,0H480V400A24.028,24.028,0,0,0,456,376ZM344,408H312V392h32Z"/><path d="M150.212,304.473,109.828,360H248V288H182.562A40.121,40.121,0,0,0,150.212,304.473Zm8.444,43.965-13.312-8.876,26.667-40,13.312,8.876Z"/><path d="M329.438,288H264v72H402.172l-40.384-55.527A40.121,40.121,0,0,0,329.438,288Z"/><path d="M384,416a32,32,0,1,0,32,32A32.036,32.036,0,0,0,384,416Zm0,48a16,16,0,1,1,16-16A16.019,16.019,0,0,1,384,464Z"/><path d="M256,80a39.973,39.973,0,0,0-19.99,74.6,8,8,0,0,1,3.99,6.922V176h32V161.526a8,8,0,0,1,3.99-6.922A39.973,39.973,0,0,0,256,80Zm-16,56a8,8,0,1,1,8-8A8,8,0,0,1,240,136Zm32,0a8,8,0,1,1,8-8A8,8,0,0,1,272,136Z"/><path d="M297.487,208.051a8,8,0,0,1,12.19-1.995A39.949,39.949,0,0,0,376,176.143c-.022-.318-.036-.577-.04-.839a8,8,0,0,1,9.6-7.953,32,32,0,1,0,0-62.7,8,8,0,0,1-9.6-7.953c0-.282.019-.561.04-.839A40.045,40.045,0,0,0,336,56a39.628,39.628,0,0,0-23.9,7.993,8,8,0,0,1-12.122-3.2,47.976,47.976,0,0,0-87.949,0,8,8,0,0,1-12.123,3.2A39.618,39.618,0,0,0,176,56a40.045,40.045,0,0,0-40,39.862c.021.309.035.555.04.805a8,8,0,0,1-9.6,7.982,32,32,0,1,0,0,62.7,8,8,0,0,1,9.6,7.982c0,.271-.02.538-.04.805a39.949,39.949,0,0,0,66.323,29.918,8,8,0,0,1,12.19,1.995,47.909,47.909,0,0,0,82.974,0ZM288,184a8,8,0,0,1-8,8H232a8,8,0,0,1-8-8v-4.707l-33.695,19.061-7.878-13.926,37.838-21.4a56.256,56.256,0,0,1-19.7-35.266l-27.911-16.917,8.293-13.683,20.082,12.172A56,56,0,0,1,311.355,111.5l20.707-11.714,7.876,13.926L311.08,130.033a56.314,56.314,0,0,1-20.228,33.736l35.292,21.39-8.293,13.682L288,180.749Z"/><path d="M412.7,230.682a8.039,8.039,0,0,1-8.006,5.98c-.425-.015-.79-.054-1.054-.088C392.778,236.761,384,245.4,384,256s8.779,19.24,19.644,19.426c.282-.036.638-.074,1.052-.088.089,0,.178,0,.267,0a8,8,0,0,1,7.739,5.984,20.024,20.024,0,0,0,38.6,0,7.991,7.991,0,0,1,8.006-5.98c.425.015.79.054,1.054.088C471.222,275.239,480,266.6,480,256s-8.779-19.24-19.644-19.426c-.282.036-.638.074-1.052.088a8.012,8.012,0,0,1-8.006-5.98,20.024,20.024,0,0,0-38.6,0Z"/></g></svg>
